<svg width="243" height="39" viewBox="0 0 243 39" fill="none" xmlns="http://www.w3.org/2000/svg">
<path d="M48.0409 9.2696C48.0409 3.83925 44.3448 0.216309 38.8017 0.216309H0.928691C0.417271 0.216309 0 0.634744 0 1.145V17.393C0 17.9045 0.417271 18.3217 0.928691 18.3217H38.8005C44.3436 18.3217 48.0398 14.7 48.0398 9.26844" fill="#D26161"/>
<path d="M48.0409 29.8821C48.0409 24.4494 44.3448 20.8276 38.8017 20.8276H0.928691C0.417271 20.8276 0 21.2472 0 21.7563V38.0055C0 38.5169 0.417271 38.9342 0.928691 38.9342C0.928691 38.9342 35.1043 38.9331 38.8005 38.9342C44.3436 38.9342 48.0398 35.3113 48.0398 29.8809" fill="#E0A46E"/>
<path d="M98.5427 9.27058C98.5427 3.8379 94.8477 0.217285 89.3034 0.217285H51.4316C50.9202 0.217285 50.5029 0.635718 50.5029 1.14598V17.394C50.5029 17.9054 50.9202 18.3227 51.4316 18.3227H89.3034C94.8477 18.3227 98.5427 14.7009 98.5427 9.26941" fill="#5AA2BE"/>
<path d="M98.5427 29.8821C98.5427 24.4494 94.8477 20.8276 89.3034 20.8276H51.4316C50.9202 20.8276 50.5029 21.2472 50.5029 21.7563V38.0055C50.5029 38.5169 50.9202 38.9342 51.4316 38.9342H89.3034C94.8477 38.9342 98.5427 35.3113 98.5427 29.8809" fill="#68B47D"/>
<path d="M105.912 32.3506H108.402C109.858 32.3506 110.738 33.213 110.738 34.459V34.4765C110.738 35.8875 109.64 36.6198 108.272 36.6198H107.253V38.4493H105.912V32.3517V32.3506ZM108.315 35.4249C108.986 35.4249 109.378 35.0239 109.378 34.502V34.4846C109.378 33.8837 108.959 33.5617 108.289 33.5617H107.252V35.4261H108.314L108.315 35.4249Z" fill="#F3F3F6"/>
<path d="M114.344 32.3506H117.131C117.907 32.3506 118.508 32.5679 118.909 32.9689C119.248 33.3083 119.432 33.7884 119.432 34.3626V34.38C119.432 35.3645 118.901 35.9828 118.125 36.2699L119.615 38.4481H118.047L116.741 36.4966H115.687V38.4481H114.345V32.3506H114.344ZM117.044 35.3122C117.698 35.3122 118.072 34.9635 118.072 34.4497V34.4323C118.072 33.8569 117.671 33.5617 117.018 33.5617H115.684V35.3122H117.043H117.044Z" fill="#F3F3F6"/>
<path d="M122.986 35.4169V35.3995C122.986 33.6664 124.354 32.2461 126.236 32.2461C128.117 32.2461 129.468 33.649 129.468 35.382V35.3995C129.468 37.1325 128.1 38.5528 126.218 38.5528C124.336 38.5528 122.986 37.1499 122.986 35.4169ZM128.065 35.4169V35.3995C128.065 34.3545 127.298 33.4828 126.218 33.4828C125.138 33.4828 124.389 34.3359 124.389 35.382V35.3995C124.389 36.4444 125.156 37.3161 126.236 37.3161C127.315 37.3161 128.065 36.463 128.065 35.4169Z" fill="#F3F3F6"/>
<path d="M133.275 32.3506H137.918V33.5699H134.617V34.8682H137.527V36.0874H134.617V38.4481H133.276V32.3506H133.275Z" fill="#F3F3F6"/>
<path d="M141.603 32.3506H146.202V33.5443H142.936V34.781H145.811V35.9747H142.936V37.2556H146.246V38.4493H141.603V32.3517V32.3506Z" fill="#F3F3F6"/>
<path d="M149.636 37.5594L150.428 36.6098C150.977 37.0631 151.552 37.3502 152.249 37.3502C152.797 37.3502 153.129 37.1328 153.129 36.7748V36.7574C153.129 36.418 152.919 36.2436 151.9 35.9821C150.671 35.6683 149.879 35.3289 149.879 34.1178V34.1003C149.879 32.9938 150.767 32.2627 152.013 32.2627C152.901 32.2627 153.66 32.5416 154.278 33.038L153.581 34.048C153.04 33.6737 152.509 33.4471 151.995 33.4471C151.482 33.4471 151.212 33.6819 151.212 33.9783V33.9957C151.212 34.3967 151.473 34.5269 152.528 34.7977C153.764 35.1197 154.462 35.5648 154.462 36.6272V36.6446C154.462 37.8558 153.539 38.5346 152.223 38.5346C151.299 38.5346 150.368 38.2126 149.636 37.5594Z" fill="#F3F3F6"/>
<path d="M157.738 37.5594L158.531 36.6098C159.079 37.0631 159.655 37.3502 160.351 37.3502C160.899 37.3502 161.231 37.1328 161.231 36.7748V36.7574C161.231 36.418 161.022 36.2436 160.002 35.9821C158.774 35.6683 157.981 35.3289 157.981 34.1178V34.1003C157.981 32.9938 158.869 32.2627 160.115 32.2627C161.004 32.2627 161.761 32.5416 162.38 33.038L161.683 34.048C161.142 33.6737 160.611 33.4471 160.097 33.4471C159.584 33.4471 159.313 33.6819 159.313 33.9783V33.9957C159.313 34.3967 159.574 34.5269 160.629 34.7977C161.865 35.1197 162.563 35.5648 162.563 36.6272V36.6446C162.563 37.8558 161.639 38.5346 160.324 38.5346C159.401 38.5346 158.469 38.2126 157.737 37.5594H157.738Z" fill="#F3F3F6"/>
<path d="M166.406 32.3506H167.747V38.4481H166.406V32.3506Z" fill="#F3F3F6"/>
<path d="M171.615 35.4169V35.3995C171.615 33.6664 172.983 32.2461 174.864 32.2461C176.745 32.2461 178.096 33.649 178.096 35.382V35.3995C178.096 37.1325 176.728 38.5528 174.848 38.5528C172.967 38.5528 171.615 37.1499 171.615 35.4169ZM176.695 35.4169V35.3995C176.695 34.3545 175.929 33.4828 174.848 33.4828C173.767 33.4828 173.018 34.3359 173.018 35.382V35.3995C173.018 36.4444 173.785 37.3161 174.865 37.3161C175.945 37.3161 176.695 36.463 176.695 35.4169Z" fill="#F3F3F6"/>
<path d="M181.904 32.3506H183.141L185.998 36.1049V32.3506H187.322V38.4481H186.18L183.227 34.5718V38.4481H181.903V32.3506H181.904Z" fill="#F3F3F6"/>
<path d="M193.49 32.3066H194.726L197.339 38.4483H195.936L195.378 37.0803H192.8L192.243 38.4483H190.875L193.487 32.3066H193.49ZM194.902 35.8959L194.092 33.9188L193.282 35.8959H194.902Z" fill="#F3F3F6"/>
<path d="M200.895 32.3506H202.236V37.2288H205.277V38.4481H200.895V32.3506Z" fill="#F3F3F6"/>
<path d="M214.129 32.3506H215.47V37.2288H218.511V38.4481H214.129V32.3506Z" fill="#F3F3F6"/>
<path d="M222.196 32.3506H223.537V38.4481H222.196V32.3506Z" fill="#F3F3F6"/>
<path d="M227.675 32.3506H228.912L231.769 36.1049V32.3506H233.093V38.4481H231.951L228.998 34.5718V38.4481H227.674V32.3506H227.675Z" fill="#F3F3F6"/>
<path d="M237.171 32.3506H241.77V33.5443H238.504V34.781H241.378V35.9747H238.504V37.2556H241.814V38.4493H237.171V32.3517V32.3506Z" fill="#F3F3F6"/>
<path d="M105.914 0.69873H125.056C128.768 0.69873 132.231 2.36898 132.231 6.9613C132.231 8.87564 131.23 11.2072 128.838 11.9383V12.0069C131.806 12.4963 133.378 15.3486 133.378 18.0301C133.378 21.3334 131.806 25.541 124.089 25.541H105.913V0.699892L105.914 0.69873ZM112.842 10.5854H122.483C124.09 10.5854 125.093 9.74621 125.093 7.90394C125.093 6.33597 124.376 5.22596 121.519 5.22596H112.842V10.5854ZM112.842 20.8126H123.056C125.195 20.8126 126.018 19.4539 126.018 17.8836C126.018 15.9356 124.77 14.8906 122.34 14.8906H112.842V20.8115V20.8126Z" fill="#F3F3F6"/>
<path d="M145.597 0.69873H138.667V25.5398H145.597V0.69873Z" fill="#F3F3F6"/>
<path d="M152.013 0.69873H158.941V19.5817H174.477V25.5444H152.013V0.69873Z" fill="#F3F3F6"/>
<path d="M199.666 10.0935C199.021 6.50775 195.988 4.73522 192.379 4.73522C185.806 4.73522 184.414 9.7448 184.414 13.1225C184.414 16.5002 185.806 21.5051 192.379 21.5051C195.738 21.5051 198.985 19.9372 199.666 16.0062H207.197C206.343 23.244 200.239 26.2393 192.127 26.2393C182.845 26.2393 177.062 22.3385 177.062 13.1225C177.062 3.90648 182.844 0.00341797 192.127 0.00341797C198.267 0.00341797 206.096 1.5307 207.131 10.0935H199.666Z" fill="#F3F3F6"/>
<path d="M227.143 0C240.853 0 243 7.93747 243 13.1237C243 18.31 240.853 26.2393 227.143 26.2393C213.432 26.2393 211.288 18.3042 211.288 13.1237C211.288 7.94328 213.432 0 227.143 0ZM227.143 21.5052C233.426 21.5052 235.644 16.9815 235.644 13.1226C235.644 9.26367 233.427 4.73529 227.143 4.73529C220.858 4.73529 218.642 9.25554 218.642 13.1226C218.642 16.9896 220.852 21.5052 227.143 21.5052Z" fill="#F3F3F6"/>
<path d="M199.666 10.0935C199.021 6.50775 195.988 4.73522 192.379 4.73522C185.806 4.73522 184.414 9.7448 184.414 13.1225C184.414 16.5002 185.806 21.5051 192.379 21.5051C195.738 21.5051 198.985 19.9372 199.666 16.0062H207.197C206.343 23.244 200.239 26.2393 192.127 26.2393C182.845 26.2393 177.062 22.3385 177.062 13.1225C177.062 3.90648 182.844 0.00341797 192.127 0.00341797C198.267 0.00341797 206.096 1.5307 207.131 10.0935H199.666Z" fill="#F3F3F6"/>
<path d="M227.143 0C240.853 0 243 7.93747 243 13.1237C243 18.31 240.853 26.2393 227.143 26.2393C213.432 26.2393 211.288 18.3042 211.288 13.1237C211.288 7.94328 213.432 0 227.143 0ZM227.143 21.5052C233.426 21.5052 235.644 16.9815 235.644 13.1226C235.644 9.26367 233.427 4.73529 227.143 4.73529C220.858 4.73529 218.642 9.25554 218.642 13.1226C218.642 16.9896 220.852 21.5052 227.143 21.5052Z" fill="#F3F3F6"/>
</svg>
