<svg width="27" height="31" viewBox="0 0 27 31" fill="none" xmlns="http://www.w3.org/2000/svg">
<path d="M25.5769 4.51251H20.0879M25.5769 4.51251C25.5769 5.28251 23.5267 6.72214 22.8324 7.26251M25.5769 4.51251C25.5769 3.74251 23.5267 2.30289 22.8324 1.76251M0.875 4.51251H6.364M0.875 4.51251C0.875 3.74251 2.9265 2.30289 3.62087 1.76251M0.875 4.51251C0.875 5.28251 2.9265 6.72214 3.62087 7.26251M10.247 29.2625V27.97C10.2472 27.0787 9.95872 26.2114 9.42475 25.4978L4.16812 18.4729C3.73087 17.8899 3.40637 17.1818 3.60575 16.4805C4.10075 14.7494 6.05737 13.2108 8.245 15.9209L10.445 18.2694V3.95426C10.5797 1.43801 14.8079 0.644637 15.2451 3.95426V12.1121C17.2842 11.8509 26.8859 13.2823 25.4889 19.3515L25.2909 20.226C25.0062 21.4883 24.1689 23.735 23.2462 25.0495C22.2851 26.4176 22.7347 28.6245 22.6247 29.2653" stroke="#F3F3F6" stroke-width="1.60976" stroke-linecap="round" stroke-linejoin="round"/>
</svg>
