<svg width="24" height="23" viewBox="0 0 24 23" fill="none" xmlns="http://www.w3.org/2000/svg">
<path d="M1.33333 6.66822H18.6667L16.5333 8.26822C16.3933 8.37328 16.2752 8.5049 16.186 8.65556C16.0968 8.80623 16.0382 8.97299 16.0134 9.14633C15.9886 9.31966 15.9983 9.49618 16.0417 9.6658C16.0852 9.83541 16.1616 9.99481 16.2667 10.1349C16.3909 10.3005 16.5519 10.4349 16.737 10.5275C16.9222 10.62 17.1263 10.6682 17.3333 10.6682C17.6218 10.6682 17.9025 10.5747 18.1333 10.4016L23.4667 6.40155C23.6297 6.27712 23.7619 6.11674 23.8529 5.93289C23.9439 5.74904 23.9912 5.54668 23.9912 5.34155C23.9912 5.13643 23.9439 4.93407 23.8529 4.75022C23.7619 4.56637 23.6297 4.40599 23.4667 4.28155L18.32 0.281554C18.0406 0.0640766 17.6863 -0.0335177 17.335 0.0102408C16.9837 0.0539993 16.6641 0.235526 16.4467 0.514888C16.2292 0.794249 16.1316 1.14856 16.1754 1.49988C16.2191 1.8512 16.4006 2.17074 16.68 2.38822L18.7733 4.00155H1.33333C0.979711 4.00155 0.640573 4.14203 0.390524 4.39208C0.140476 4.64213 0 4.98127 0 5.33489C0 5.68851 0.140476 6.02765 0.390524 6.2777C0.640573 6.52774 0.979711 6.66822 1.33333 6.66822ZM22.6667 16.0016H5.33333L7.46667 14.4016C7.74957 14.1894 7.93659 13.8735 7.9866 13.5234C8.03661 13.1734 7.94551 12.8178 7.73333 12.5349C7.52116 12.252 7.2053 12.065 6.85523 12.015C6.50516 11.9649 6.14956 12.056 5.86667 12.2682L0.533333 16.2682C0.370257 16.3927 0.23809 16.553 0.147116 16.7369C0.0561412 16.9207 0.00881259 17.1231 0.00881259 17.3282C0.00881259 17.5333 0.0561412 17.7357 0.147116 17.9196C0.23809 18.1034 0.370257 18.2638 0.533333 18.3882L5.68 22.3882C5.91273 22.5688 6.19873 22.6673 6.49333 22.6682C6.69696 22.6677 6.89776 22.6206 7.08035 22.5305C7.26294 22.4403 7.42246 22.3096 7.54667 22.1482C7.76319 21.8703 7.86089 21.5179 7.81842 21.1681C7.77594 20.8184 7.59675 20.4996 7.32 20.2816L5.22667 18.6682H22.6667C23.0203 18.6682 23.3594 18.5277 23.6095 18.2777C23.8595 18.0276 24 17.6885 24 17.3349C24 16.9813 23.8595 16.6421 23.6095 16.3921C23.3594 16.142 23.0203 16.0016 22.6667 16.0016Z" fill="#F3F3F6"/>
</svg>
