<svg width="32" height="33" viewBox="0 0 32 33" fill="none" xmlns="http://www.w3.org/2000/svg">
<path d="M24.0003 9.4458C24.0003 10.1822 23.4034 10.7791 22.667 10.7791C21.9306 10.7791 21.3337 10.1822 21.3337 9.4458C21.3337 8.70942 21.9306 8.11247 22.667 8.11247C23.4034 8.11247 24.0003 8.70942 24.0003 9.4458Z" fill="#969696" stroke="#969696" stroke-width="1.33333"/>
<path d="M21.3333 4.1123C25.0133 4.1123 28 7.09897 28 10.779V21.4456C28 25.1256 25.0133 28.1123 21.3333 28.1123H10.6667C6.98667 28.1123 4 25.1256 4 21.4456V10.779C4 7.09897 6.98667 4.1123 10.6667 4.1123H16H21.3333Z" stroke="#969696" stroke-width="2.66667" stroke-linecap="round" stroke-linejoin="round"/>
<path d="M16.0003 10.7788C18.947 10.7788 21.3337 13.1655 21.3337 16.1121C21.3337 19.0588 18.947 21.4455 16.0003 21.4455C13.0537 21.4455 10.667 19.0588 10.667 16.1121C10.667 13.1655 13.0537 10.7788 16.0003 10.7788Z" stroke="#969696" stroke-width="2.66667" stroke-linecap="round" stroke-linejoin="round"/>
</svg>
