<svg width="35" height="35" viewBox="0 0 35 35" fill="none" xmlns="http://www.w3.org/2000/svg">
<path d="M27.1795 4.30762C27.9342 4.30762 28.658 4.60742 29.1916 5.14106C29.7253 5.67471 30.0251 6.39849 30.0251 7.15318V27.0721C30.0251 27.8268 29.7253 28.5506 29.1916 29.0843C28.658 29.6179 27.9342 29.9177 27.1795 29.9177H7.2606C6.50591 29.9177 5.78213 29.6179 5.24848 29.0843C4.71484 28.5506 4.41504 27.8268 4.41504 27.0721V7.15318C4.41504 6.39849 4.71484 5.67471 5.24848 5.14106C5.78213 4.60742 6.50591 4.30762 7.2606 4.30762H27.1795ZM26.4681 26.3608V18.82C26.4681 17.5899 25.9794 16.4101 25.1096 15.5403C24.2398 14.6704 23.06 14.1817 21.8299 14.1817C20.6205 14.1817 19.2119 14.9216 18.529 16.0314V14.4521H14.5595V26.3608H18.529V19.3464C18.529 18.2509 19.4111 17.3545 20.5067 17.3545C21.035 17.3545 21.5416 17.5644 21.9152 17.938C22.2887 18.3115 22.4986 18.8182 22.4986 19.3464V26.3608H26.4681ZM9.93542 12.2183C10.5694 12.2183 11.1773 11.9665 11.6256 11.5182C12.0739 11.0699 12.3257 10.462 12.3257 9.82802C12.3257 8.50483 11.2586 7.42351 9.93542 7.42351C9.29771 7.42351 8.68612 7.67684 8.23519 8.12777C7.78426 8.57871 7.53093 9.1903 7.53093 9.82802C7.53093 11.1512 8.61224 12.2183 9.93542 12.2183ZM11.9131 26.3608V14.4521H7.97199V26.3608H11.9131Z" fill="#969696"/>
</svg>
