<svg width="43" height="36" viewBox="0 0 43 36" fill="none" xmlns="http://www.w3.org/2000/svg">
<path d="M7.09914 0H0.662664C0.296685 0 0 0.296685 0 0.662664V6.92214C0 7.28812 0.296685 7.5848 0.662664 7.5848H7.09914C7.46512 7.5848 7.7618 7.28812 7.7618 6.92214V0.662664C7.7618 0.296685 7.46512 0 7.09914 0Z" fill="#F3F3F6"/>
<path d="M7.09914 18.8428H0.662664C0.296685 18.8428 0 19.1395 0 19.5054V25.7649C0 26.1309 0.296685 26.4276 0.662664 26.4276H7.09914C7.46512 26.4276 7.7618 26.1309 7.7618 25.7649V19.5054C7.7618 19.1395 7.46512 18.8428 7.09914 18.8428Z" fill="#F3F3F6"/>
<path d="M14.5347 28.382H0.936214C0.419157 28.382 0 28.8011 0 29.3182V35.0305C0 35.5476 0.419157 35.9668 0.936214 35.9668H14.5347C15.0518 35.9668 15.4709 35.5476 15.4709 35.0305V29.3182C15.4709 28.8011 15.0518 28.382 14.5347 28.382Z" fill="#F3F3F6"/>
<path d="M32.2115 28.382H18.613C18.0959 28.382 17.6768 28.8011 17.6768 29.3182V35.0305C17.6768 35.5476 18.0959 35.9668 18.613 35.9668H32.2115C32.7285 35.9668 33.1477 35.5476 33.1477 35.0305V29.3182C33.1477 28.8011 32.7285 28.382 32.2115 28.382Z" fill="#F3F3F6"/>
<path d="M42.336 28.382H35.9258C35.5599 28.382 35.2632 28.6786 35.2632 29.0446V35.3041C35.2632 35.6701 35.5599 35.9668 35.9258 35.9668H42.336C42.702 35.9668 42.9987 35.6701 42.9987 35.3041V29.0446C42.9987 28.6786 42.702 28.382 42.336 28.382Z" fill="#F3F3F6"/>
<path d="M24.4776 18.8428H10.8893C10.3723 18.8428 9.95312 19.2619 9.95312 19.779V25.4914C9.95312 26.0084 10.3723 26.4276 10.8893 26.4276H24.4776C24.9947 26.4276 25.4138 26.0084 25.4138 25.4914V19.779C25.4138 19.2619 24.9947 18.8428 24.4776 18.8428Z" fill="#F3F3F6"/>
<path d="M42.0636 18.8428H28.4753C27.9582 18.8428 27.5391 19.2619 27.5391 19.779V25.4914C27.5391 26.0084 27.9582 26.4276 28.4753 26.4276H42.0636C42.5806 26.4276 42.9998 26.0084 42.9998 25.4914V19.779C42.9998 19.2619 42.5806 18.8428 42.0636 18.8428Z" fill="#F3F3F6"/>
<path d="M14.5347 9.30212H0.936214C0.419157 9.30212 0 9.72128 0 10.2383V15.9507C0 16.4678 0.419157 16.8869 0.936214 16.8869H14.5347C15.0518 16.8869 15.4709 16.4678 15.4709 15.9507V10.2383C15.4709 9.72128 15.0518 9.30212 14.5347 9.30212Z" fill="#F3F3F6"/>
<path d="M32.2115 9.30212H18.613C18.0959 9.30212 17.6768 9.72128 17.6768 10.2383V15.9507C17.6768 16.4678 18.0959 16.8869 18.613 16.8869H32.2115C32.7285 16.8869 33.1477 16.4678 33.1477 15.9507V10.2383C33.1477 9.72128 32.7285 9.30212 32.2115 9.30212Z" fill="#F3F3F6"/>
<path d="M24.4776 0H10.8893C10.3723 0 9.95312 0.419158 9.95312 0.936214V6.64859C9.95312 7.16564 10.3723 7.5848 10.8893 7.5848H24.4776C24.9947 7.5848 25.4138 7.16564 25.4138 6.64859V0.936214C25.4138 0.419158 24.9947 0 24.4776 0Z" fill="#F3F3F6"/>
</svg>
