<svg width="36" height="36" viewBox="0 0 36 36" fill="none" xmlns="http://www.w3.org/2000/svg">
<g clip-path="url(#clip0_128_548)">
<path d="M33.3308 35.9699C34.8222 36.226 36.2142 34.8371 35.9566 33.3442C35.2546 28.653 33.138 19.7272 26.7867 12.6288C26.0019 11.7671 24.7274 11.5727 23.7557 12.1723C22.1408 13.1696 20.6223 14.2768 19.2182 15.5001C19.619 15.9008 20.7759 17.0563 21.1932 17.4751C22.2221 18.504 22.2221 20.1777 21.1932 21.2081C20.1643 22.2385 18.4906 22.237 17.4602 21.2081L15.4852 19.2331C14.262 20.6356 13.1487 22.1617 12.1514 23.7766C11.5594 24.7423 11.7522 26.0167 12.6154 26.8016C19.7139 33.1528 28.6397 35.2709 33.3308 35.9714V35.9699Z" fill="#F3F3F6"/>
<path d="M19.9067 19.92C20.2291 19.5977 20.2216 19.0764 19.9067 18.7616L16.1044 14.9592L18.0432 13.0204C18.2255 12.8381 18.2255 12.5414 18.0432 12.3591L17.2448 11.5607C17.0625 11.3784 16.7658 11.3784 16.5835 11.5607L11.5474 16.5968C11.3651 16.7791 11.3651 17.0758 11.5474 17.2581L12.3458 18.0565C12.5281 18.2388 12.8248 18.2388 13.0071 18.0565L14.9459 16.1177L18.7483 19.92C19.0631 20.2349 19.5843 20.2424 19.9067 19.92Z" fill="#F3F3F6"/>
<path d="M15.0285 10.5377L7.74328 1.60583C6.97197 0.653739 5.81953 0.067724 4.59025 0.0089719C0.442952 -0.259179 -1.66459 5.16862 1.59239 7.75823L10.5242 15.0435C10.5242 15.0435 14.6323 10.9308 15.0285 10.5392V10.5377Z" fill="#F3F3F6"/>
</g>
<defs>
<clipPath id="clip0_128_548">
<rect width="35.9864" height="36" fill="white"/>
</clipPath>
</defs>
</svg>
